<?xml version="1.0" encoding="UTF-8" standalone="no"?><!DOCTYPE svg PUBLIC "-//W3C//DTD SVG 1.1//EN" "http://www.w3.org/Graphics/SVG/1.1/DTD/svg11.dtd"><svg width="1603px" height="1603px" version="1.1" xmlns="http://www.w3.org/2000/svg" xmlns:xlink="http://www.w3.org/1999/xlink" xml:space="preserve" xmlns:serif="http://www.serif.com/" style="fill-rule:evenodd;clip-rule:evenodd;stroke-linejoin:round;stroke-miterlimit:2;"><rect id="Artboard2" x="0" y="0" width="1602.97" height="1602.97" style="fill:none;"/><path d="M1352.73,1381.28C1209.15,1517.81 1015.06,1601.65 801.491,1601.65C359.862,1601.65 1.319,1243.11 1.319,801.485C1.319,359.863 359.862,1.321 801.491,1.321C1243.11,1.321 1601.65,359.863 1601.65,801.485L1601.65,1601.65L1352.73,1601.65L1352.73,1381.28ZM1352.73,801.485C1352.73,497.218 1105.69,250.244 801.491,250.244C497.261,250.244 250.261,497.218 250.261,801.485C250.261,1105.69 497.261,1352.73 801.491,1352.73C1105.69,1352.73 1352.73,1105.69 1352.73,801.485Z" style="fill:rgb(242,103,34);"/></svg>