<?xml version="1.0" encoding="UTF-8" standalone="no"?><!DOCTYPE svg PUBLIC "-//W3C//DTD SVG 1.1//EN" "http://www.w3.org/Graphics/SVG/1.1/DTD/svg11.dtd"><svg width="688px" height="276px" version="1.1" xmlns="http://www.w3.org/2000/svg" xmlns:xlink="http://www.w3.org/1999/xlink" xml:space="preserve" xmlns:serif="http://www.serif.com/" style="fill-rule:evenodd;clip-rule:evenodd;stroke-linejoin:round;stroke-miterlimit:2;"><rect id="Artboard2" x="0" y="-0" width="687.873" height="275.84" style="fill:none;"/><g><path d="M130.521,160.042L130.521,93.274C130.521,89.337 127.329,86.519 123.391,86.981L39.089,96.871C35.151,97.333 31.959,100.9 31.959,104.837L31.959,171.605L37.022,171.011L37.022,176.323L31.959,176.917L31.959,244.202C31.959,248.139 35.151,250.957 39.089,250.495L123.391,240.605C127.329,240.143 130.521,236.577 130.521,232.639L130.521,165.354L125.458,165.948L125.458,160.636L130.521,160.042ZM50.593,112.931L50.593,107.699L84.567,103.713C88.515,103.25 94.605,103.759 99.857,106.579C106.247,110.01 109.765,116.039 109.765,123.557L109.765,161.763C109.765,161.976 109.765,162.22 109.763,162.477L95.182,164.188C95.186,163.954 95.188,163.717 95.188,163.474L95.188,125.268C95.188,122.612 94.092,120.873 91.633,119.628C89.084,118.338 86.01,118.121 84.566,118.29L65.17,120.566L65.17,167.709L50.593,169.419L50.593,112.932L50.593,112.931ZM96.437,231.074L95.209,227.718L81.559,190.428L65.171,192.35L65.171,234.743L50.593,236.453L50.593,174.73L65.171,173.02L65.171,177.773L86.03,175.326C90.916,174.753 93.436,173.234 94.517,169.578L109.398,167.832C109.036,170.393 108.315,173.355 106.88,176.267C104.581,180.935 101.006,184.535 96.379,186.896L109.442,222.583L111.887,229.262L96.437,231.074Z" style="fill:rgb(42,40,40);fill-rule:nonzero;"/><path d="M235.643,147.71L235.643,80.942C235.643,77.004 232.451,74.187 228.513,74.649L144.211,84.539C140.274,85.001 137.082,88.567 137.082,92.505L137.082,159.272L142.144,158.678L142.144,163.99L137.082,164.584L137.082,231.869C137.082,235.807 140.274,238.625 144.211,238.163L228.513,228.273C232.451,227.811 235.643,224.244 235.643,220.306L235.643,153.021L230.581,153.615L230.581,148.304L235.643,147.71ZM156.776,95.242L171.354,93.532L171.354,155.252L156.776,156.962L156.776,95.242ZM209.703,208.441C206.01,213.138 198.963,219.047 186.362,220.525C173.761,222.003 166.714,217.748 163.021,213.917C157.385,208.072 156.776,200.743 156.776,197.863L156.776,162.274L171.353,160.564L171.353,196.153C171.353,196.287 171.375,199.465 173.245,202.108C175.576,205.403 179.989,206.695 186.362,205.947C192.735,205.2 197.148,202.873 199.48,199.03C201.349,195.948 201.371,192.766 201.371,192.632L201.371,157.042L215.948,155.332L215.948,190.921C215.948,193.801 215.34,201.273 209.703,208.441L209.703,208.441ZM215.948,150.02L201.371,151.73L201.371,90.01L215.948,88.3L215.948,150.02Z" style="fill:rgb(42,40,40);fill-rule:nonzero;"/><path d="M340.546,135.403L340.546,68.635C340.546,64.698 337.354,61.88 333.417,62.342L249.114,72.232C245.177,72.694 241.985,76.261 241.985,80.198L241.985,146.966L247.047,146.372L247.047,151.684L241.985,152.277L241.985,219.562C241.985,223.5 245.177,226.318 249.114,225.856L333.417,215.966C337.354,215.504 340.546,211.938 340.546,208L340.546,140.715L335.484,141.309L335.484,135.997L340.546,135.403ZM276.257,209.98L261.679,211.69L261.679,149.967L276.257,148.257L276.257,209.98ZM276.257,126.592L276.257,142.945L261.679,144.656L261.679,82.935L274.635,81.415L275.916,84.642L298.053,140.389L282.461,142.218L276.257,126.592ZM320.852,199.515L320.852,204.748L307.896,206.268L306.615,203.042L284.477,147.293L300.069,145.463L306.275,161.092L306.275,144.735L320.852,143.025L320.852,199.515L320.852,199.515ZM320.852,137.713L306.274,139.424L306.274,77.703L320.852,75.993L320.852,137.713Z" style="fill:rgb(42,40,40);fill-rule:nonzero;"/><path d="M445.669,123.071L445.669,56.303C445.669,52.365 442.477,49.548 438.539,50.01L354.237,59.9C350.3,60.362 347.108,63.928 347.108,67.866L347.108,134.633L352.17,134.039L352.17,139.351L347.108,139.945L347.108,207.23C347.108,211.168 350.3,213.985 354.237,213.524L438.539,203.634C442.477,203.172 445.669,199.605 445.669,195.667L445.669,128.382L440.607,128.976L440.607,123.665L445.669,123.071ZM356.466,77.743L355.672,71.908L369.678,70.265L376.94,131.134L363.946,132.658L356.466,77.743ZM387.766,192.271L387.226,196.96L372.932,198.637L372.324,194.17L364.658,137.886L377.565,136.372L380.039,157.112L382.332,135.813L394.007,134.443L387.766,192.271ZM396.389,112.369L394.587,129.064L382.91,130.433L389.637,67.923L403.141,66.339L409.868,127.271L398.191,128.641L396.389,112.369ZM420.453,188.524L419.845,193.133L405.551,194.81L405.011,190.248L398.771,133.884L410.446,132.515L412.738,153.275L415.212,131.955L428.12,130.441L420.453,188.524ZM436.311,68.376L428.831,125.046L415.837,126.571L423.099,63.998L437.106,62.354L436.311,68.376Z" style="fill:rgb(42,40,40);fill-rule:nonzero;"/><path d="M550.792,110.738L550.792,43.971C550.792,40.033 547.599,37.216 543.662,37.678L459.36,47.567C455.422,48.029 452.23,51.596 452.23,55.533L452.23,122.301L457.293,121.707L457.293,127.019L452.23,127.613L452.23,194.898C452.23,198.835 455.422,201.653 459.36,201.191L543.662,191.301C547.599,190.839 550.792,187.273 550.792,183.335L550.792,116.05L545.729,116.644L545.729,111.332L550.792,110.738ZM493.304,60.067L494.08,55.671L508.955,53.926L509.731,58.141L520.071,114.342L505.325,116.072L501.516,95.368L497.705,116.966L482.958,118.696L493.304,60.067ZM517.396,181.69L516.621,177.475L511.08,147.36L491.945,149.605L486.401,181.021L485.625,185.417L470.88,187.147L471.99,180.856L482.001,124.12L496.747,122.39L494.572,134.719L508.455,133.091L506.281,121.272L521.027,119.542L531.033,173.93L532.142,179.96L517.396,181.69Z" style="fill:rgb(42,40,40);fill-rule:nonzero;"/><path d="M655.914,98.406L655.914,31.638C655.914,27.7 652.722,24.883 648.784,25.345L564.482,35.235C560.545,35.697 557.353,39.263 557.353,43.201L557.353,109.969L562.415,109.375L562.415,114.686L557.353,115.28L557.353,182.565C557.353,186.503 560.545,189.321 564.482,188.859L648.784,178.969C652.722,178.507 655.914,174.94 655.914,171.003L655.914,103.718L650.852,104.312L650.852,99L655.914,98.406ZM613.922,170.367L599.345,172.077L599.345,110.354L613.922,108.644L613.922,170.367ZM635.961,46.101L615.419,103.156L597.848,105.218L577.306,52.982L574.647,46.22L590.22,44.393L591.495,47.635L606.633,86.13L621.772,44.083L623.046,40.542L638.62,38.715L635.961,46.101Z" style="fill:rgb(42,40,40);fill-rule:nonzero;"/><path id="Path_23" d="M655.894,234.984C655.911,235.441 655.915,235.966 655.894,236.421C655.73,239.892 654.095,243.134 651.401,245.33C644.804,250.748 633.572,250.353 625.789,248.1C623.288,247.418 620.91,246.348 618.741,244.928L622.742,235.995C627.424,238.922 632.88,240.373 638.397,240.158C640.144,240.059 643.21,239.54 643.803,237.587C644.748,234.475 641.316,233.586 639.081,232.935C631.367,230.689 620.034,230.238 619.464,219.714C618.569,203.186 642.234,202.507 652.88,207.921C653.288,208.127 653.684,208.357 654.067,208.607L650.328,217.661C646.344,215.34 641.784,214.193 637.176,214.353C634.668,214.489 631.216,215.459 631.54,218.632C631.755,220.702 635.118,221.442 636.769,221.882C644.395,223.916 655.493,224.703 655.896,234.983" style="fill:rgb(42,40,40);fill-rule:nonzero;"/><path id="Path_24" d="M568.098,205.734L568.098,215.153L546.4,215.153L546.4,222.412L565.511,222.412L565.511,231.467L546.508,231.467L546.4,231.575L546.4,239.372L568.889,239.372L568.889,248.788L534.401,248.788L534.401,205.734L568.098,205.734Z" style="fill:rgb(42,40,40);fill-rule:nonzero;"/><path id="Path_25" d="M655.913,216.371C655.914,216.387 655.914,216.402 655.914,216.418C655.914,217.388 655.116,218.185 654.147,218.185C653.178,218.185 652.38,217.388 652.38,216.418C652.38,215.449 653.178,214.651 654.147,214.651C654.149,214.651 654.176,214.651 654.187,214.651C655.132,214.651 655.91,215.426 655.913,216.371M652.821,216.371C652.82,216.384 652.82,216.398 652.82,216.412C652.82,217.143 653.421,217.744 654.152,217.744C654.156,217.744 654.159,217.744 654.163,217.744C654.883,217.741 655.474,217.147 655.474,216.427C655.474,216.411 655.474,216.396 655.473,216.38C655.474,216.366 655.474,216.352 655.474,216.338C655.474,215.61 654.875,215.011 654.147,215.011C653.419,215.011 652.82,215.61 652.82,216.338C652.82,216.348 652.82,216.359 652.821,216.37M653.88,217.272L653.482,217.272L653.482,215.553C653.7,215.514 653.921,215.497 654.142,215.5C654.349,215.483 654.557,215.527 654.74,215.626C654.85,215.72 654.912,215.859 654.908,216.004C654.893,216.201 654.746,216.365 654.552,216.402L654.552,216.424C654.727,216.494 654.848,216.656 654.867,216.843C654.884,216.993 654.927,217.139 654.993,217.275L654.562,217.275C654.496,217.142 654.45,217.001 654.426,216.855C654.395,216.666 654.29,216.582 654.069,216.582L653.88,216.582L653.88,217.272ZM653.891,216.301L654.08,216.301C654.295,216.301 654.478,216.227 654.478,216.049C654.478,215.892 654.362,215.787 654.111,215.787C654.038,215.786 653.966,215.793 653.895,215.808L653.891,216.301Z" style="fill:rgb(42,40,40);fill-rule:nonzero;"/><path d="M597.958,237.819L598.461,236.707L605.283,247.369C601.736,249.473 597.681,250.571 593.557,250.544L593.48,250.544C589.355,250.571 585.301,249.473 581.753,247.369L588.575,236.707L589.079,237.819L589.697,239.859L597.338,239.859L597.958,237.819ZM593.522,245.608C594.351,245.602 595.13,245.534 595.589,245.494C596.606,245.405 597.323,245.076 597.295,243.991L589.744,243.991C589.716,245.076 590.433,245.405 591.45,245.494L591.455,245.494C591.913,245.534 592.692,245.601 593.522,245.608ZM589.208,241.934L589.203,241.934C589.203,242.452 589.629,242.878 590.147,242.878L596.89,242.878C597.407,242.878 597.833,242.452 597.833,241.934C597.833,241.417 597.407,240.99 596.89,240.99L590.152,240.99C589.634,240.99 589.208,241.417 589.208,241.934ZM570.181,228.298L583.904,228.301C584.157,229.974 584.853,231.549 585.918,232.863C586.167,233.18 587.408,234.407 587.341,234.716L579.845,246.196C574.077,242.009 570.518,235.417 570.181,228.298ZM603.131,228.298L616.854,228.298C616.517,235.416 612.958,242.007 607.191,246.192L599.694,234.713C599.627,234.403 600.87,233.177 601.117,232.86C602.183,231.546 602.879,229.971 603.131,228.298ZM570.177,226.14C570.497,219.02 574.094,212.434 579.911,208.314L587.051,219.361C586.674,219.861 586.197,220.264 585.811,220.757C584.615,222.312 583.902,224.184 583.761,226.14L570.177,226.14ZM599.976,219.361L607.112,208.314C612.929,212.434 616.525,219.02 616.846,226.14L603.266,226.14C603.125,224.184 602.412,222.312 601.216,220.757C600.829,220.264 600.35,219.862 599.976,219.361ZM593.556,203.945C597.699,203.933 601.772,205.022 605.356,207.101L598.128,218.157C595.241,216.653 591.794,216.653 588.907,218.157L581.679,207.101C585.263,205.022 589.335,203.933 593.478,203.945L593.556,203.945Z" style="fill:url(#_Linear1);"/></g><defs><linearGradient id="_Linear1" x1="0" y1="0" x2="1" y2="0" gradientUnits="userSpaceOnUse" gradientTransform="matrix(53.9961,0,0,53.9961,565.511,228.479)"><stop offset="0" style="stop-color:rgb(237,76,38);stop-opacity:1"/><stop offset="1" style="stop-color:rgb(242,127,36);stop-opacity:1"/></linearGradient></defs></svg>