<?xml version="1.0" encoding="UTF-8" standalone="no"?><!DOCTYPE svg PUBLIC "-//W3C//DTD SVG 1.1//EN" "http://www.w3.org/Graphics/SVG/1.1/DTD/svg11.dtd"><svg width="1960px" height="1960px" version="1.1" xmlns="http://www.w3.org/2000/svg" xmlns:xlink="http://www.w3.org/1999/xlink" xml:space="preserve" xmlns:serif="http://www.serif.com/" style="fill-rule:evenodd;clip-rule:evenodd;stroke-linejoin:round;stroke-miterlimit:2;"><rect id="Artboard1" x="0" y="0" width="1959.32" height="1959.32" style="fill:none;"/><path d="M527.479,955.184C527.162,954.971 526.747,954.713 526.396,954.466C510.86,944.452 439.056,900.517 420.833,890.993C420.704,890.917 420.534,890.851 420.392,890.761C410.664,887.909 343.905,868.241 271.782,843.158C262.688,840.002 255.949,832.222 254.152,822.767C252.357,813.315 255.743,803.678 263.033,797.528C373.043,704.638 506.379,652.213 603.236,619.568C603.429,619.501 603.622,619.434 603.79,619.393C603.79,619.393 771.676,566.929 771.679,566.932C776.884,564.375 782.079,561.964 785.959,558.083L830.108,513.935C831.332,512.711 832.674,511.605 834.109,510.643C897.845,468.008 1133.46,421.548 1143.57,419.565C1148.81,418.452 1152.99,416.275 1157.23,412.03C1214.64,354.624 1304.25,332.966 1398.94,303.987C1399.41,303.835 1399.87,303.716 1400.36,303.58C1474.88,285.167 1551.6,265.212 1614.16,222.694C1681.39,176.995 1761.53,139.821 1852.46,113.492C1862.28,110.656 1872.93,113.698 1879.81,121.361C1886.72,128.996 1888.65,139.89 1884.82,149.342C1884.82,149.342 1792.12,377.371 1772.05,424.505C1770.7,427.685 1769.56,430.238 1768.7,432.092C1757.3,469.237 1737.66,502.374 1713.36,539.8C1698.56,563.395 1599.49,826.365 1599.49,826.365C1598.35,829.394 1596.63,832.209 1594.47,834.627C1524.92,912.289 1484.35,1022.73 1443.18,1128.78C1421.75,1184.02 1402.35,1237.14 1380.99,1279.65C1364.94,1313.66 1338.1,1341.3 1308.54,1370.87C1284.6,1394.8 1258.54,1420.57 1238.55,1452.42C1238.44,1452.62 1238.29,1452.84 1238.14,1453.05C1222.26,1476.81 1215.49,1520.57 1195.39,1619.08C1190.46,1650.05 1162.98,1682.62 1149.33,1691.69L1138.93,1696.71L1130.28,1697.95L1118.57,1695.42L1110.3,1689.7L1018.54,1597.94C1016.47,1595.87 1014.76,1593.48 1013.45,1590.87C998.6,1560.96 996.165,1543.42 996.254,1518.45C995.627,1492.88 992.618,1471.27 981.242,1452.44C963.004,1422.23 925.074,1400.34 853.116,1377.3C849.054,1376.41 844.136,1378.11 839.277,1379.55C827.433,1383.08 812.911,1391.01 811.734,1391.65C804.591,1396.65 795.246,1397.88 786.867,1394.6C710.696,1365.11 629.398,1357.57 549.201,1342.44C538.301,1340.39 529.783,1331.82 527.716,1320.95C520.205,1281.14 519.988,1200.91 521.79,1183.49L523.975,1173.64L530.014,1164.37C543.194,1151.19 561.703,1117.35 571.041,1081.62C576.781,1059.65 579.356,1036.81 572.726,1017.99C572.069,1016.13 571.614,1014.22 571.381,1012.27C570.273,1003.14 563.192,993.606 556.227,984.87C544.377,969.999 530.718,957.955 527.479,955.184ZM458.895,1799.57C458.421,1799.41 457.944,1799.24 457.465,1799.08L237.954,1714.12C234.312,1712.72 231.031,1710.53 228.297,1707.75C107.625,1583.22 56.766,1472.87 64.538,1340.1C64.985,1332.47 68.677,1325.43 74.689,1320.76C80.727,1316.07 88.469,1314.23 95.997,1315.66C204.84,1336.52 315.039,1347.8 421.605,1380.34L421.652,1380.33C435.566,1384.61 449.726,1388.3 464.057,1391.59C474.09,1393.91 481.959,1401.78 484.281,1411.81C513.642,1539.26 528.141,1668.42 536.482,1799.28C537.093,1809.06 532.317,1818.35 524.021,1823.49C515.749,1828.61 505.282,1828.77 496.759,1823.89C488.642,1819.26 462.973,1802.29 458.895,1799.57ZM453.743,1208.07C454.135,1233.62 456.242,1258.96 459.586,1284.39C460.719,1293.08 457.569,1301.7 451.107,1307.53C444.642,1313.36 435.712,1315.63 427.187,1313.62C335.886,1291.96 246.054,1276.88 154.871,1259.72C144.134,1257.69 135.63,1249.34 133.448,1238.61C131.267,1227.89 135.853,1216.95 144.969,1211.07C158.413,1202.37 172.856,1194.2 189.075,1186.05C192.126,1184.51 195.454,1183.57 198.843,1183.31C226.487,1181.05 271.073,1182.92 343.289,1182.63C376.468,1182.47 403.7,1182.14 426.17,1181.59C433.33,1181.4 440.268,1184.12 445.454,1189.1C450.64,1194.08 453.625,1200.92 453.743,1208.07ZM642.799,1855.95L635.531,1856.71L628.752,1855.55L620.094,1851.12L614.533,1845.35L610.42,1836.75C610.006,1835.35 609.302,1832.09 608.619,1827.14C603.288,1789.4 584.707,1593.5 565.478,1491.6C562.461,1476.24 559.109,1460.91 555.614,1445.59C553.614,1436.97 556.047,1427.94 562.075,1421.52C568.104,1415.1 576.971,1412.09 585.702,1413.53C633.782,1421.39 681.731,1430.07 727.553,1444.74C735.196,1447.17 741.376,1452.88 744.355,1460.34C747.36,1467.77 746.872,1476.14 743.059,1483.11C702.693,1556.72 704.346,1620.52 705.518,1674.41C707.584,1742.58 708.006,1791.5 656.043,1848.15C652.502,1852.01 647.884,1854.73 642.799,1855.95Z" style="fill:rgb(153,56,9);"/></svg>