<?xml version="1.0" encoding="UTF-8" standalone="no"?><!DOCTYPE svg PUBLIC "-//W3C//DTD SVG 1.1//EN" "http://www.w3.org/Graphics/SVG/1.1/DTD/svg11.dtd"><svg width="14320px" height="2757px" viewBox="0 0 14319.8 2756.75" version="1.1" xmlns="http://www.w3.org/2000/svg" xmlns:xlink="http://www.w3.org/1999/xlink" xml:space="preserve" xmlns:serif="http://www.serif.com/" style="fill-rule:evenodd;clip-rule:evenodd;stroke-linejoin:round;stroke-miterlimit:2;"><rect id="Artboard1" x="0" y="0" width="14319.8" height="2756.75" style="fill:none;"/><clipPath id="_clip1"><rect x="0" y="0" width="14319.8" height="2756.75"/></clipPath><g clip-path="url(#_clip1)"><path d="M854.551,1878.81C763.759,1965.14 641.032,2018.16 505.982,2018.16C226.722,2018.16 -0,1791.43 -0,1512.18C-0,1232.92 226.722,1006.2 505.982,1006.2C785.234,1006.2 1011.96,1232.92 1011.96,1512.18L1011.96,2018.16L854.551,2018.16L854.551,1878.81ZM854.551,1512.18C854.551,1319.78 698.339,1163.61 505.982,1163.61C313.604,1163.61 157.417,1319.78 157.417,1512.18C157.417,1704.54 313.604,1860.75 505.982,1860.75C698.339,1860.75 854.551,1704.54 854.551,1512.18Z"/><path d="M1126,1006.18L1285.28,1006.18L1285.28,1163.65C1323.45,1116.54 1358.05,1082.24 1389.05,1060.76C1442.16,1024.37 1502.4,1006.18 1569.81,1006.18C1646.16,1006.18 1707.59,1024.96 1754.12,1062.55C1780.37,1084.02 1804.22,1115.63 1825.69,1157.38C1861.49,1106.09 1903.56,1068.07 1951.87,1043.31C2000.18,1018.56 2054.47,1006.18 2114.7,1006.18C2243.55,1006.18 2331.24,1052.7 2377.76,1145.75C2402.81,1195.85 2415.35,1263.26 2415.35,1347.96L2415.35,2018.14L2248.03,2018.14L2248.03,1320.24C2248.03,1256.4 2232.05,1212.57 2200.15,1188.7C2168.24,1164.85 2129.32,1152.93 2083.39,1152.93C2020.16,1152.93 1965.74,1174.08 1920.1,1216.44C1874.46,1258.8 1851.65,1329.47 1851.65,1428.49L1851.65,2018.14L1687.91,2018.14L1687.91,1360.5C1687.91,1295.49 1680.14,1248.06 1664.64,1218.23C1640.18,1173.5 1594.56,1151.12 1527.74,1151.12C1466.92,1151.12 1411.59,1174.69 1361.78,1221.81C1311.96,1268.94 1287.07,1354.23 1287.07,1477.71L1287.07,2018.14L1126,2018.14L1126,1006.18Z"/><path d="M2686.83,1878.81C2777.62,1965.14 2900.35,2018.16 3035.4,2018.16C3314.66,2018.16 3541.38,1791.43 3541.38,1512.18C3541.38,1232.92 3314.66,1006.2 3035.4,1006.2C2756.15,1006.2 2529.43,1232.92 2529.43,1512.18L2529.43,2666.18L2686.83,2666.18L2686.83,1878.81ZM2686.83,1512.18C2686.83,1319.78 2843.04,1163.61 3035.4,1163.61C3227.78,1163.61 3383.97,1319.78 3383.97,1512.18C3383.97,1704.54 3227.78,1860.75 3035.4,1860.75C2843.04,1860.75 2686.83,1704.54 2686.83,1512.18Z"/><path d="M4304.7,638.41C4541.83,638.41 4717.43,712.487 4831.44,860.679C4920.43,976.224 4964.94,1124.11 4964.94,1304.26C4964.94,1499.25 4914.03,1661.37 4812.22,1790.53C4692.73,1942.25 4522.33,2018.13 4301.03,2018.13C4094.37,2018.13 3931.9,1951.77 3813.59,1819C3708.15,1690.98 3655.39,1529.17 3655.39,1333.6C3655.39,1156.99 3700.53,1005.88 3790.74,880.243C3906.57,719.009 4077.91,638.41 4304.7,638.41ZM4322.97,1859.89C4483.31,1859.89 4599.28,1804.03 4670.95,1692.32C4742.57,1580.62 4778.36,1452.14 4778.36,1306.94C4778.36,1153.46 4737.09,1029.85 4654.45,936.251C4571.86,842.61 4458.92,795.771 4315.67,795.771C4176.65,795.771 4063.27,842.15 3975.47,934.909C3887.66,1027.67 3843.78,1164.39 3843.78,1345.15C3843.78,1489.77 3881.43,1611.73 3956.72,1710.97C4032.02,1810.25 4154.11,1859.89 4322.97,1859.89Z"/><path d="M5266.36,1557.67C5271,1631.87 5290.72,1692.17 5325.43,1738.49C5391.54,1825.16 5508.09,1868.5 5675.01,1868.5C5749.82,1868.5 5817.88,1859 5879.34,1840C5998.19,1803.18 6057.61,1737.29 6057.61,1642.26C6057.61,1571.04 6032.59,1520.24 5982.51,1489.95C5931.77,1460.29 5852.28,1434.45 5744.12,1412.47L5544.79,1372.37C5414.56,1346.26 5322.43,1317.49 5268.35,1286.01C5174.88,1231.34 5128.14,1149.73 5128.14,1041.07C5128.14,923.486 5173.88,826.995 5265.36,751.551C5356.84,676.152 5486.36,638.453 5653.94,638.453C5808.24,638.453 5939.27,671.534 6047.12,737.786C6154.93,803.993 6208.86,909.809 6208.86,1055.32L6021.56,1055.32C6011.57,985.253 5990.2,931.479 5957.44,894.09C5896.72,825.796 5793.51,791.649 5647.95,791.649C5530.45,791.649 5445.97,813.629 5394.53,857.545C5343.15,901.506 5317.44,952.571 5317.44,1010.78C5317.44,1074.9 5347.45,1121.8 5407.57,1151.5C5446.97,1170.51 5536.1,1194.27 5675.01,1222.77L5881.34,1264.6C5980.81,1284.81 6057.61,1312.42 6111.74,1347.46C6205.21,1408.61 6251.95,1497.37 6251.95,1613.76C6251.95,1758.65 6192.68,1862.29 6074.14,1924.63C5955.64,1986.98 5817.88,2018.15 5660.98,2018.15C5478.03,2018.15 5334.76,1976.58 5231.3,1893.46C5127.79,1810.91 5077.06,1698.97 5079.05,1557.67L5266.36,1557.67Z"/><path d="M6627.52,1801.35L6627.52,304.768L6413.87,304.768L6413.87,1801.35L6627.52,1801.35ZM7482.66,2015.02L7482.66,1801.38L6627.52,1801.38L6627.52,2015.02L7482.66,2015.02ZM7696.83,1801.35L7696.83,304.768L7482.63,304.768L7482.63,1801.35L7696.83,1801.35ZM7482.66,304.768L7482.66,90.564L6627.52,90.564L6627.52,304.768L7482.66,304.768Z" style="fill-rule:nonzero;"/><path d="M8907.26,304.768L8907.26,90.564L7838.53,90.564L7838.53,2014.99L8052.14,2014.99L8052.14,1159.88L8693.64,1159.88L8693.64,946.264L8052.14,946.264L8052.14,304.768L8907.26,304.768Z" style="fill-rule:nonzero;"/><path d="M10118.1,304.768L10118.1,90.564L9049.34,90.564L9049.34,2014.99L9262.95,2014.99L9262.95,1159.88L9904.45,1159.88L9904.45,946.264L9262.95,946.264L9262.95,304.768L10118.1,304.768Z" style="fill-rule:nonzero;"/><path d="M10473.8,1801.38L10473.8,90.564L10260.1,90.564L10260.1,2014.99L11328.9,2014.99L11328.9,1801.38L10473.8,1801.38Z" style="fill-rule:nonzero;"/><rect x="11470.9" y="90.564" width="213.646" height="1924.43" style="fill-rule:nonzero;"/><path d="M12467.9,1159.88L12467.9,732.03L12253.7,732.03L12253.7,1159.88L12467.9,1159.88ZM12040,304.768L12040,90.564L11826.4,90.564L11826.4,2014.99L12040,2014.99L12040,732.03L12253.7,732.03L12253.7,304.768L12040,304.768ZM12895.2,90.564L12895.2,1373.53L12681.5,1373.53L12681.5,1801.38L12895.2,1801.38L12895.2,2014.99L13109.4,2014.99L13109.4,90.564L12895.2,90.564ZM12681.5,1373.53L12681.5,1159.88L12467.9,1159.88L12467.9,1373.53L12681.5,1373.53Z" style="fill-rule:nonzero;"/><path d="M14319.8,304.768L14319.8,90.564L13251.1,90.564L13251.1,2014.99L14319.8,2014.99L14319.8,1801.38L13464.7,1801.38L13464.7,1159.88L14106.2,1159.88L14106.2,946.264L13464.7,946.264L13464.7,304.768L14319.8,304.768Z" style="fill-rule:nonzero;"/></g></svg>