<?xml version="1.0" encoding="UTF-8" standalone="no"?><!DOCTYPE svg PUBLIC "-//W3C//DTD SVG 1.1//EN" "http://www.w3.org/Graphics/SVG/1.1/DTD/svg11.dtd"><svg width="7211px" height="2615px" version="1.1" xmlns="http://www.w3.org/2000/svg" xmlns:xlink="http://www.w3.org/1999/xlink" xml:space="preserve" xmlns:serif="http://www.serif.com/" style="fill-rule:evenodd;clip-rule:evenodd;stroke-linejoin:round;stroke-miterlimit:2;"><rect id="Artboard3" x="0" y="0" width="7210.5" height="2614.45" style="fill:none;"/><g><path id="ampOS" d="M1257,1541.39C1163.14,1630.65 1036.26,1685.46 896.645,1685.46C607.94,1685.46 373.551,1451.07 373.551,1162.37C373.551,873.667 607.94,639.278 896.645,639.278C1185.34,639.278 1419.73,873.667 1419.73,1162.37L1419.73,1685.46L1257,1685.46L1257,1541.39ZM1257,1162.37C1257,963.459 1095.51,802.006 896.645,802.006C697.762,802.006 536.292,963.459 536.292,1162.37C536.292,1361.23 697.762,1522.73 896.645,1522.73C1095.51,1522.73 1257,1361.23 1257,1162.37ZM1537.63,639.255L1702.3,639.255L1702.3,802.051C1741.76,753.346 1777.53,717.881 1809.58,695.68C1864.49,658.063 1926.76,639.255 1996.45,639.255C2075.38,639.255 2138.9,658.671 2186.99,697.528C2214.13,719.729 2238.79,752.41 2260.99,795.571C2298,742.538 2341.49,703.236 2391.43,677.644C2441.38,652.051 2497.5,639.255 2559.78,639.255C2692.98,639.255 2783.63,687.352 2831.73,783.547C2857.63,835.34 2870.59,905.03 2870.59,992.593L2870.59,1685.44L2697.61,1685.44L2697.61,963.936C2697.61,897.942 2681.1,852.628 2648.11,827.948C2615.13,803.291 2574.89,790.963 2527.4,790.963C2462.04,790.963 2405.78,812.836 2358.59,856.629C2311.4,900.422 2287.82,973.48 2287.82,1075.85L2287.82,1685.44L2118.55,1685.44L2118.55,1005.55C2118.55,938.343 2110.52,889.31 2094.5,858.477C2069.21,812.228 2022.05,789.091 1952.96,789.091C1890.08,789.091 1832.88,813.467 1781.39,862.173C1729.88,910.902 1704.15,999.073 1704.15,1126.73L1704.15,1685.44L1537.63,1685.44L1537.63,639.255ZM3151.25,1541.39L3151.25,2355.4L2988.53,2355.4L2988.53,1162.37C2988.53,873.667 3222.91,639.278 3511.61,639.278C3800.32,639.278 4034.71,873.667 4034.71,1162.37C4034.71,1451.07 3800.32,1685.46 3511.61,1685.46C3371.99,1685.46 3245.12,1630.65 3151.25,1541.39ZM3151.25,1162.37C3151.25,1361.23 3312.75,1522.73 3511.61,1522.73C3710.5,1522.73 3871.97,1361.23 3871.97,1162.37C3871.97,963.459 3710.5,802.006 3511.61,802.006C3312.75,802.006 3151.25,963.459 3151.25,1162.37ZM5818.02,1209.4C5822.82,1286.11 5843.21,1348.45 5879.09,1396.33C5947.44,1485.94 6067.93,1530.74 6240.5,1530.74C6317.83,1530.74 6388.19,1520.92 6451.74,1501.27C6574.6,1463.21 6636.04,1395.09 6636.04,1296.85C6636.04,1223.21 6610.17,1170.7 6558.4,1139.39C6505.95,1108.73 6423.76,1082.01 6311.95,1059.28L6105.87,1017.83C5971.24,990.837 5875.99,961.09 5820.09,928.542C5723.45,872.032 5675.13,787.656 5675.13,675.323C5675.13,553.763 5722.42,454.008 5816.99,376.013C5911.56,298.064 6045.47,259.09 6218.72,259.09C6378.23,259.09 6513.69,293.29 6625.19,361.782C6736.65,430.229 6792.4,539.623 6792.4,690.059L6598.76,690.059C6588.44,617.618 6566.35,562.026 6532.48,523.373C6469.71,452.769 6363,417.467 6212.52,417.467C6091.05,417.467 6003.71,440.19 5950.54,485.592C5897.42,531.039 5870.83,583.831 5870.83,644.015C5870.83,710.303 5901.86,758.78 5964.01,789.492C6004.74,809.14 6096.89,833.7 6240.5,863.172L6453.81,906.415C6556.64,927.303 6636.04,955.857 6691.99,992.077C6788.63,1055.29 6836.95,1147.06 6836.95,1267.38C6836.95,1417.17 6775.68,1524.32 6653.12,1588.77C6530.62,1653.22 6388.19,1685.45 6226,1685.45C6036.85,1685.45 5888.74,1642.48 5781.78,1556.54C5674.77,1471.2 5622.32,1355.47 5624.38,1209.4L5818.02,1209.4Z"/><path d="M4329.01,462.852C4445.45,328.969 4607.31,261.057 4814.54,259.09L4833.99,259.09C5059.83,261.057 5230.91,328.968 5347.16,462.852L4329.01,462.852Z" style="fill:rgb(187,0,0);"/><path d="M5347.16,462.852C5354.46,471.252 5361.54,479.912 5368.4,488.831C5409.02,541.577 5440.68,600.84 5463.37,666.615L4207.12,666.615C4229,610.377 4257.46,557.859 4292.5,509.057C4304.13,492.87 4316.3,477.468 4329.01,462.852L5347.16,462.852Z" style="fill:white;"/><path d="M5463.37,666.615C5484.79,728.731 5498.22,796.654 5503.65,870.378L4158.28,870.378C4166.24,797.755 4182.52,729.835 4207.12,666.615L5463.37,666.615Z" style="fill:rgb(187,0,0);"/><path d="M5503.65,870.378C5505.49,895.388 5506.41,921.066 5506.41,947.411C5506.41,991.263 5503.92,1033.51 5498.94,1074.14L4156.95,1074.14C4154.03,1042.94 4152.57,1010.81 4152.57,977.751C4152.57,940.885 4154.47,905.094 4158.28,870.378L5503.65,870.378Z" style="fill:white;"/><path d="M5498.94,1074.14C5489.98,1147.28 5472.95,1215.2 5447.85,1277.9L4201.41,1277.9C4178.6,1215.1 4163.78,1147.18 4156.95,1074.14L5498.94,1074.14Z" style="fill:rgb(187,0,0);"/><path d="M5447.85,1277.9C5422.78,1340.52 5389.68,1397.93 5348.53,1450.13C5339.95,1461.02 5331.12,1471.53 5322.04,1481.67L4318.01,1481.67C4317.38,1480.97 4316.75,1480.26 4316.12,1479.56C4266.68,1419.53 4228.44,1352.31 4201.41,1277.9L5447.85,1277.9Z" style="fill:white;"/><path d="M5322.04,1481.67C5200.28,1617.5 5032.95,1685.43 4820.05,1685.43C4607.49,1685.43 4440.16,1617.52 4318.01,1481.67L5322.04,1481.67Z" style="fill:rgb(187,0,0);"/><path d="M4814.54,259.09C4816.36,259.072 4818.19,259.06 4820.03,259.053L4820.03,972.238L4152.59,972.238C4152.77,937.314 4154.66,903.361 4158.28,870.378C4166.24,797.755 4182.52,729.835 4207.12,666.615C4229,610.377 4257.46,557.855 4292.5,509.057C4304.13,492.868 4316.3,477.468 4329.01,462.852C4445.45,328.969 4607.31,261.057 4814.54,259.09Z" style="fill:rgb(53,63,163);"/><path d="M4528.72,476.681L4575.87,621.778L4728.43,621.778L4605,711.453L4652.15,856.549L4528.72,766.875L4405.3,856.549L4452.44,711.453L4329.01,621.778L4481.58,621.778L4528.72,476.681Z" style="fill:white;"/></g></svg>