<?xml version="1.0" encoding="UTF-8" standalone="no"?><!DOCTYPE svg PUBLIC "-//W3C//DTD SVG 1.1//EN" "http://www.w3.org/Graphics/SVG/1.1/DTD/svg11.dtd"><svg width="14320px" height="2757px" version="1.1" xmlns="http://www.w3.org/2000/svg" xmlns:xlink="http://www.w3.org/1999/xlink" xml:space="preserve" xmlns:serif="http://www.serif.com/" style="fill-rule:evenodd;clip-rule:evenodd;stroke-linejoin:round;stroke-miterlimit:2;"><rect id="Artboard1" x="0" y="0" width="14319.8" height="2756.75" style="fill:none;"/><path id="ACCESS" d="M13482.4,1767.99C13122.7,1767.99 12899.6,1614.11 12885.2,1340.02L12884.2,1321.74L13259.3,1321.74L13261.2,1330.4C13277.6,1405.41 13371.8,1455.42 13487.2,1455.42C13609.4,1455.42 13684.4,1405.41 13684.4,1336.17L13684.4,1335.21C13684.4,1269.81 13628.6,1242.88 13474.7,1214.99L13335.3,1189.99C13059.2,1140.94 12908.3,1001.49 12908.3,786.058L12908.3,785.096C12908.3,506.193 13148.7,330.196 13477.6,330.196C13848.8,330.196 14046,495.614 14057.5,755.282L14058.5,776.44L13683.4,776.44L13682.5,766.823C13674.8,690.846 13594,642.759 13482.4,642.759C13369.9,642.759 13312.2,691.808 13312.2,755.282L13312.2,756.244C13312.2,818.757 13371.8,848.571 13510.3,873.576L13649.8,898.581C13946.9,952.438 14088.3,1073.62 14088.3,1298.66L14088.3,1299.62C14088.3,1586.22 13865.2,1767.99 13482.4,1767.99ZM12259.4,1767.99C11899.7,1767.99 11676.6,1614.11 11662.1,1340.02L11661.2,1321.74L12036.2,1321.74L12038.2,1330.4C12054.5,1405.41 12148.8,1455.42 12264.2,1455.42C12386.3,1455.42 12461.3,1405.41 12461.3,1336.17L12461.3,1335.21C12461.3,1269.81 12405.5,1242.88 12251.7,1214.99L12112.2,1189.99C11836.2,1140.94 11685.2,1001.49 11685.2,786.058L11685.2,785.096C11685.2,506.193 11925.6,330.196 12254.6,330.196C12625.8,330.196 12822.9,495.614 12834.5,755.282L12835.4,776.44L12460.4,776.44L12459.4,766.823C12451.7,690.846 12370.9,642.759 12259.4,642.759C12146.8,642.759 12089.1,691.808 12089.1,755.282L12089.1,756.244C12089.1,818.757 12148.8,848.571 12287.3,873.576L12426.7,898.581C12723.9,952.438 12865.3,1073.62 12865.3,1298.66L12865.3,1299.62C12865.3,1586.22 12642.1,1767.99 12259.4,1767.99ZM10663.2,1742.98L10663.2,355.201L11642.2,355.201L11642.2,678.344L11070.9,678.344L11070.9,899.542L11606.6,899.542L11606.6,1199.6L11070.9,1199.6L11070.9,1419.84L11642.2,1419.84L11642.2,1742.98L10663.2,1742.98ZM8645.04,1767.99C8218.99,1767.99 7957.4,1506.4 7957.4,1048.61L7957.4,1047.65C7957.4,589.864 8221.88,330.196 8645.04,330.196C9030.7,330.196 9289.4,580.247 9289.4,906.275L9289.4,914.93L8898.94,914.93L8897.98,903.389C8886.44,765.861 8796.03,662.956 8645.04,662.956C8477.7,662.956 8372.87,803.369 8372.87,1046.69L8372.87,1047.65C8372.87,1294.82 8477.7,1435.23 8646,1435.23C8786.42,1435.23 8886.44,1340.02 8899.9,1193.83L8900.86,1183.25L9291.33,1183.25L9291.33,1193.83C9291.33,1518.9 9026.85,1767.99 8645.04,1767.99ZM9997.92,1767.99C9571.88,1767.99 9310.28,1506.4 9310.28,1048.61L9310.28,1047.65C9310.28,589.864 9574.76,330.196 9997.92,330.196C10383.6,330.196 10642.3,580.247 10642.3,906.275L10642.3,914.93L10251.8,914.93L10250.9,903.389C10239.3,765.861 10148.9,662.956 9997.92,662.956C9830.58,662.956 9725.75,803.369 9725.75,1046.69L9725.75,1047.65C9725.75,1294.82 9830.58,1435.23 9998.89,1435.23C10139.3,1435.23 10239.3,1340.02 10252.8,1193.83L10253.7,1183.25L10644.2,1183.25L10644.2,1193.83C10644.2,1518.9 10379.7,1767.99 9997.92,1767.99ZM6694.93,1742.98L7147.9,355.201L7659.55,355.201L8112.52,1742.98L7683.59,1742.98L7611.46,1466.96L7195.99,1466.96L7123.86,1742.98L6694.93,1742.98ZM7399.88,686.038L7271.01,1179.41L7536.44,1179.41L7407.57,686.038L7399.88,686.038Z"/><path id="ampOS" d="M1114.98,1612.54C1021.12,1701.8 894.239,1756.61 754.621,1756.61C465.916,1756.61 231.526,1522.22 231.526,1233.52C231.526,944.817 465.916,710.428 754.621,710.428C1043.32,710.428 1277.71,944.817 1277.71,1233.52L1277.71,1756.61L1114.98,1756.61L1114.98,1612.54ZM1114.98,1233.52C1114.98,1034.61 953.484,873.156 754.621,873.156C555.737,873.156 394.267,1034.61 394.267,1233.52C394.267,1432.38 555.737,1593.88 754.621,1593.88C953.484,1593.88 1114.98,1432.38 1114.98,1233.52ZM1395.6,710.405L1560.27,710.405L1560.27,873.202C1599.74,824.496 1635.51,789.031 1667.56,766.831C1722.46,729.214 1784.74,710.405 1854.43,710.405C1933.36,710.405 1996.87,729.822 2044.97,768.679C2072.11,790.879 2096.76,823.56 2118.97,866.722C2155.97,813.688 2199.46,774.387 2249.41,748.794C2299.36,723.201 2355.48,710.405 2417.75,710.405C2550.96,710.405 2641.61,758.502 2689.71,854.697C2715.6,906.491 2728.56,976.181 2728.56,1063.74L2728.56,1756.6L2555.59,1756.6L2555.59,1035.09C2555.59,969.093 2539.07,923.779 2506.09,899.099C2473.1,874.442 2432.86,862.113 2385.38,862.113C2320.01,862.113 2263.75,883.986 2216.57,927.779C2169.38,971.572 2145.8,1044.63 2145.8,1147L2145.8,1756.6L1976.52,1756.6L1976.52,1076.7C1976.52,1009.49 1968.5,960.46 1952.47,929.627C1927.18,883.378 1880.02,860.242 1810.94,860.242C1748.06,860.242 1690.86,884.618 1639.37,933.324C1587.85,982.053 1562.12,1070.22 1562.12,1197.88L1562.12,1756.6L1395.6,1756.6L1395.6,710.405ZM3009.23,1612.54L3009.23,2426.55L2846.5,2426.55L2846.5,1233.52C2846.5,944.817 3080.89,710.428 3369.59,710.428C3658.29,710.428 3892.68,944.817 3892.68,1233.52C3892.68,1522.22 3658.29,1756.61 3369.59,1756.61C3229.97,1756.61 3103.09,1701.8 3009.23,1612.54ZM3009.23,1233.52C3009.23,1432.38 3170.72,1593.88 3369.59,1593.88C3568.47,1593.88 3729.94,1432.38 3729.94,1233.52C3729.94,1034.61 3568.47,873.156 3369.59,873.156C3170.72,873.156 3009.23,1034.61 3009.23,1233.52ZM4681.82,330.196C4926.97,330.196 5108.51,406.778 5226.37,559.982C5318.37,679.435 5364.39,832.322 5364.39,1018.56C5364.39,1220.15 5311.76,1387.75 5206.51,1521.28C5082.97,1678.13 4906.81,1756.58 4678.02,1756.58C4464.37,1756.58 4296.41,1687.97 4174.1,1550.71C4065.09,1418.37 4010.55,1251.08 4010.55,1048.9C4010.55,866.31 4057.22,710.092 4150.48,580.208C4270.22,413.52 4447.36,330.196 4681.82,330.196ZM4700.71,1592.99C4866.46,1592.99 4986.36,1535.24 5060.45,1419.76C5134.5,1304.27 5171.5,1171.45 5171.5,1021.34C5171.5,862.661 5128.83,734.879 5043.4,638.11C4958.01,541.302 4841.25,492.878 4693.16,492.878C4549.43,492.878 4432.22,540.826 4341.45,636.722C4250.68,732.618 4205.31,873.964 4205.31,1060.84C4205.31,1210.35 4244.23,1336.43 4322.07,1439.03C4399.91,1541.67 4526.14,1592.99 4700.71,1592.99ZM5676,1280.55C5680.8,1357.26 5701.19,1419.6 5737.07,1467.48C5805.41,1557.09 5925.9,1601.89 6098.48,1601.89C6175.81,1601.89 6246.17,1592.07 6309.72,1572.42C6432.58,1534.36 6494.01,1466.24 6494.01,1368C6494.01,1294.37 6468.15,1241.85 6416.37,1210.54C6363.92,1179.88 6281.74,1153.16 6169.92,1130.43L5963.85,1088.98C5829.21,1061.99 5733.97,1032.24 5678.06,999.693C5581.42,943.182 5533.1,858.806 5533.1,746.473C5533.1,624.913 5580.39,525.159 5674.96,447.164C5769.54,369.215 5903.45,330.24 6076.69,330.24C6236.21,330.24 6371.66,364.44 6483.17,432.933C6594.62,501.379 6650.38,610.774 6650.38,761.209L6456.74,761.209C6446.41,688.769 6424.32,633.176 6390.46,594.523C6327.68,523.919 6220.98,488.617 6070.5,488.617C5949.03,488.617 5861.68,511.341 5808.51,556.742C5755.39,602.189 5728.81,654.982 5728.81,715.165C5728.81,781.454 5759.83,829.931 5821.99,860.642C5862.72,880.29 5954.86,904.85 6098.48,934.322L6311.78,977.566C6414.61,998.453 6494.01,1027.01 6549.97,1063.23C6646.61,1126.44 6694.93,1218.21 6694.93,1338.53C6694.93,1488.32 6633.65,1595.47 6511.1,1659.92C6388.6,1724.37 6246.17,1756.6 6083.97,1756.6C5894.82,1756.6 5746.72,1713.63 5639.76,1627.69C5532.74,1542.35 5480.29,1426.62 5482.36,1280.55L5676,1280.55Z"/></svg>