<?xml version="1.0" encoding="UTF-8"?>
<svg id="Layer_1" data-name="Layer 1" xmlns="http://www.w3.org/2000/svg" viewBox="0 0 429.89 486.89">
  <path d="M176.25,0c12,9.53,21.66,22.86,26.83,37.33,2.28,6.39,5.2,15.87,1.16,21.92,17.2,9.35,33.22,20.71,47.45,34.16,3.39,3.21,7.34,7.02,10.41,10.5.86.98,2.55,2.46,2.42,3.76-.08.75-3.87,6.29-4.62,7.23-11.8,14.79-43.92,30.39-61.33,38.75-9.67,4.65-21.01,10.34-30.97,14.02-1.43.53-2.43,1.05-3.9.16-2.31-1.41-5.74-5.05-8.08-6.92C110.54,124.67,58.71,98.68,1.38,88.16l-1.23-.79-.15-1.88c2.08-7.12,2.36-16.42,4.7-23.27.69-2.02,2.19-2.32,4.1-2.23,4.89.23,10.33,1.36,15.29,1.72,29.95,2.2,61.45.72,91.05-4.41,10.78-1.87,21.38-4.45,31.96-7.12L125.61,3.47c.16-.23.38-.47.66-.54.85-.22,9.03,2.91,10.54,3.49,10.05,3.87,25.63,10.84,31.31,20.31l2.65,5.57L175.38,0h.87ZM126.58,74.76c-20.29,2.32-15.29,34.05,5.49,29.42,18.6-4.14,14.2-31.67-5.49-29.42Z"/>
  <path d="M227.59,486.71c-6.43.24-13.76.23-20.19,0-.04,0-.33-.29-.7-.3-4.32-.17-8.63-.32-12.94-.63-1.86-.89-2.27-1.71-1.36-3.55,1.93-3.92,6.16-8.99,8.6-13.02,4.48-7.4,8.5-15.07,10.87-23.44,1.04-3.69,1.46-8.51,2.6-11.82.6-1.72,2.21-2.77,4-2.85,35.68,5.42,72.41,11.21,108.4,5.07,11.85-2.02,23.66-5.47,35-9.42,4.51-1.57,11.19-4.97,15.42-5.92,2.48-.56,3.46.81,2.02,2.89-1.79,2.58-7.79,7.78-10.38,10.1-38.66,34.6-89.89,50.98-141.34,52.91Z"/>
  <path d="M274.81,86.85c1.02-.3,6.75.62,8.26.84,61.29,8.95,105.8,54.72,124.8,111.97.88,2.65,2.57,5.37-.2,7.32-4.1,2.88-14.66,6.8-19.71,8.84-52.24,21.12-115.06,35.59-170.69,45.04-3.81.65-8.64,1.78-12.36,2.06-2.12.16-3.32.42-4.4-1.58-2.17-4.03-4.04-10.58-5.96-15.09-7.29-17.17-15.76-33.9-25.4-49.87-.96-1.58-4.69-6.61-4.75-7.96-.08-1.63.9-2.57,2.22-3.28,5.32-2.88,13.44-5.31,19.3-7.82,22.13-9.48,45.73-20.28,65.54-33.96,16.41-11.34,38.18-29.43,24.83-51.19-.66-1.08-2.83-3.08-2.5-4.31.2-.39.61-.89,1.03-1.01Z"/>
  <path d="M415.29,226.41c1.52-.3,2.87.44,3.59,1.75,1.52,2.79,3.26,10.29,4.19,13.69,5.06,18.59,8.99,39.74,5.48,58.94-1.62,8.88-2.6,9.84-10.04,14.48-16.21,10.1-36.89,17.5-55.29,22.58-41.76,11.53-85.58,15.35-128.84,13.91-3.51-.12-7.75.15-11.19-.35-3.88-.56-3.79-5.08-4.46-8.23-4.12-19.34-7.44-38.87-11.61-58.2-.17-2.96,3.79-2.93,5.94-3.24,28.83-4.15,56.91-7.26,85.49-13.44,40.96-8.86,79.39-23.17,116.75-41.89Z"/>
  <path d="M416.72,342.34c.49.61.41,1.58.34,2.33-.72,8.43-6.45,23.29-10.11,31.13-2.27,4.87-6.59,13.81-9.93,17.75-2.3,2.7-9.26,5.2-12.73,6.59-47.51,19-99.57,20.41-149.89,13.87-4.16-.54-10.21-1.06-14.1-2.05-1.8-.46-2.32-1.42-2.24-3.23.2-4.68,1.43-9.88,1.73-14.72.45-7.15.14-14.44.6-21.61.43-2.77,6.2-1.95,8.5-1.9,20.58.39,41.14,1.13,61.71,0,40.46-2.2,78.78-8.85,116.01-25.03,2.06-.9,6.21-3.39,8.1-3.74.66-.12,1.58.08,2,.61Z"/>
  <path d="M144.43,258.84c-.64.74-1.98,1.14-2.94,1.24-5.3.55-12.86-.07-17.81.93-1.23.25-4.2,2.35-5.63,3.02-1.9.89-4.05,1.69-6.06,2.31-21.22,6.57-43.9,10.54-65.23,16.96-6.26,1.76-10.77-6.87-8.05-11.79.34-.62,1.21-1.1,1.4-1.91-5.6.76-13.52,5.58-17.07-1.25-1.82-3.5-1.24-6.92,1.49-9.71-2.4.33-3.52,1.13-6,.38-7.89-2.39-7.19-14.52,1.1-15.8-1.98-.81-3.52-1.47-4.85-3.22-3.16-4.17-2.12-9.94,2.75-12.14l36.71-9.87c.12-.65-.04-.46-.37-.64-3.35-1.83-9.72-3.5-11.87-6.58-3.37-4.83-.51-14.58,6.25-13.75l41.61,9.17c6.55-1.85,12.87-3.42,19.32-.13l17.44-6.39c2-.56,3.9.32,4.78,2.17,1.78,3.76,2.14,9.9,3.68,13.91.13.35.25.94.67,1.04l25.37-4.28c1.66-.03,3.13.62,4.33,1.72,6.45,10.09,13.06,20.29,17.58,31.45.77,1.91,3.85,9.88,3.61,11.37-.14.9-1.64,1.96-2.51,1.39l-26.53-17.61c-3.95-2.58-10.09-.92-14.52.08-.33.07-1.38.23-1.41.58l3.7,13.88c.22,1.02-.26,2.71-.93,3.48ZM104.42,235.28l-28.7-7.2-.42.69,2.17,9.69-18.62,7.49,29.13,7.21-2.3-10.37,18.25-6.7.49-.8Z"/>
  <path d="M20.99,362.5c.9-.2,1.75-.03,2.39.66,23.31,39.05,66.43,66.69,109.38,79.81,20.69,6.32,43.47,10.25,64.97,5.97,1.33.2.57,1.93.2,2.8-3.52,8.51-13.58,21.76-21.13,27.03-4.59,3.2-7.26,1.64-12.27.5-60.23-13.77-124.75-46.1-143.67-109.54-.52-1.76-2.49-6.64.13-7.21Z"/>
</svg>