<?xml version="1.0" encoding="UTF-8" standalone="no"?><!DOCTYPE svg PUBLIC "-//W3C//DTD SVG 1.1//EN" "http://www.w3.org/Graphics/SVG/1.1/DTD/svg11.dtd"><svg width="1287px" height="1287px" version="1.1" xmlns="http://www.w3.org/2000/svg" xmlns:xlink="http://www.w3.org/1999/xlink" xml:space="preserve" xmlns:serif="http://www.serif.com/" style="fill-rule:evenodd;clip-rule:evenodd;stroke-linejoin:round;stroke-miterlimit:2;"><g transform="matrix(1,0,0,1,-490.251,-2867.51)"><g id="Artboard2" transform="matrix(1,0,0,1,381.644,1450.23)"><rect x="108.607" y="1417.28" width="1286.86" height="1286.86" style="fill:none;"/><clipPath id="_clip1"><rect x="108.607" y="1417.28" width="1286.86" height="1286.86"/></clipPath><g clip-path="url(#_clip1)"><g transform="matrix(5.05716,0,0,5.05716,-4251.12,-4362.38)"><path d="M1076.97,1362.29C1054.14,1384 1023.28,1397.33 989.321,1397.33C919.1,1397.33 862.09,1340.32 862.09,1270.1C862.09,1199.88 919.1,1142.87 989.321,1142.87C1059.54,1142.87 1116.55,1199.88 1116.55,1270.1L1116.55,1397.33L1076.97,1397.33L1076.97,1362.29ZM1076.97,1270.1C1076.97,1221.72 1037.69,1182.45 989.321,1182.45C940.947,1182.45 901.673,1221.72 901.673,1270.1C901.673,1318.47 940.947,1357.75 989.321,1357.75C1037.69,1357.75 1076.97,1318.47 1076.97,1270.1Z"/></g></g></g></g></svg>