<?xml version="1.0" encoding="UTF-8" standalone="no"?>
<svg xmlns="http://www.w3.org/2000/svg" viewBox="0 0 800 300" width="800" height="300">
  <!-- Orange outer border -->
  <path d="M745 40C745 23.4315 731.569 10 715 10H85C68.4315 10 55 23.4315 55 40V260C55 276.569 68.4315 290 85 290H715C731.569 290 745 276.569 745 260V40Z" fill="#F15A29" />
  
  <!-- Gold inner border -->
  <path d="M715 40C715 28.9543 706.046 20 695 20H105C93.9543 20 85 28.9543 85 40V260C85 271.046 93.9543 280 105 280H695C706.046 280 715 271.046 715 260V40Z" fill="#C69C6D" />
  
  <!-- Black background -->
  <path d="M695 40C695 31.7157 688.284 25 680 25H120C111.716 25 105 31.7157 105 40V260C105 268.284 111.716 275 120 275H680C688.284 275 695 268.284 695 260V40Z" fill="#231F20" />
  
  <!-- AMP letters -->
  <path d="M240 70L175 230H125L60 70H120L155 170L190 70H240Z" fill="#C69C6D" />
  <path d="M380 70L315 230H265L300 165H240L210 230H160L225 70H380Z" fill="#C69C6D" />
  <path d="M468 70C511.333 70 544 102.667 544 146V154C544 197.333 511.333 230 468 230H400V70H468ZM455 110H450V180H455C470 180 485 170 485 145C485 120 470 110 455 110Z" fill="#C69C6D" />
</svg> 