<?xml version="1.0" encoding="UTF-8" standalone="no"?>
<svg xmlns="http://www.w3.org/2000/svg" viewBox="0 0 800 400" width="800" height="400">
  <path d="M698.9,77.1c-187.6,0-375.2,0-563.5,0c-20.3,0-40.7-0.7-60.8,1.4c-24.7,2.5-44.4,16.4-51.7,41.1 c-2.9,9.9-4.3,19.9-4.2,30.2c0.1,42.8,0,85.7,0,128.5c0,11.9,1.3,23.5,6.1,34.5c9.8,22.2,27.8,34,51.6,35.9 c8.5,0.7,17.1,0.5,25.7,0.5c198.9,0,397.8,0,596.7,0c10.9,0,21.7-0.4,32.3-3.2c25.7-6.7,44.1-28.5,44.2-55 c0.1-47.1,0.1-94.2,0-141.3c0-10.3-2.4-20.2-7.6-29.3C754.9,91.6,730.5,77.2,698.9,77.1z" style="fill:#F15A29;"/>
  <path d="M698.9,111.3c-187.6,0-375.2,0-562.6,0c-9.1,0-18.3-0.3-27.3,0.6c-24.2,2.4-39.8,21.1-39.8,45.7 c0,45.8,0,91.6,0,137.4c0,22.9,15.1,41.2,37.6,44.8c8.1,1.3,16.5,0.7,24.8,0.7c193.3,0,386.5,0,579.8,0 c10.2,0,20.4-0.6,30.1-4.6c17.2-7.2,27.6-22.8,27.6-41.5c0.1-46.2,0.1-92.3,0-138.5c0-20.1-11.4-35.8-30.3-42.7 C726.8,109.3,713.8,111.2,698.9,111.3z" style="fill:#231F20;"/>
  <path d="M706.1,140.1c-191,0-381.9,0-573.4,0c-12.2,0-17.5,5.3-17.5,17.6c0,42.5,0,85,0,127.5c0,12,5.4,17.5,17.4,17.5 c191.3,0,382.6,0,573.9,0c11.5,0,16.8-5.4,16.8-17.1c0-42.8,0-85.6,0-128.5C723,145.4,717.7,140.1,706.1,140.1z" style="fill:#C69C6D;"/>
  <path d="M419.8,236.7c-17.6-30.1-34.8-59.5-52.7-90.1c-4.3,2.6-5.8,6.9-7.8,10.6c-14.5,25.3-29,50.6-43.6,75.9 c-3.2,5.6-6.3,11.3-9.9,16.6c-3.2,4.7-7.7,7.4-13.6,7.2c-5.6-0.2-10-2.9-12.7-7.8c-0.6-1.2-0.9-2.7-1.1-4.1 c-0.2-18.5-0.1-36.9-0.1-55.4c0-13.9-0.2-27.9,0.1-41.8c0.1-4.7,1.8-8.9,6.4-10.8c5.7-2.3,10.4-0.4,14.2,4 c2.4,2.7,3.1,6.1,3.1,9.6c0,15.1,0,30.2,0,45.3c0,2.3,0,4.5,0,7.5c1-1.5,1.7-2.3,2.2-3.2c13.7-24,27.5-48,41.1-72 c4.4-7.8,10.9-11.5,19.7-11.2c8.6,0.3,14.7,4.3,18.9,11.8c13.2,23.3,26.5,46.6,39.8,69.9c2,3.5,4,7,6.3,11c0.6-3.7,0.3-6.9,0.3-10 c0-14.7-0.1-29.4,0-44.1c0.1-8.4,5.7-13.9,13.3-13.9c7.8,0,13.2,5.1,13.3,13.5c0.2,21.5,0.1,43,0.1,64.5c0,11,0,22,0,33 c0,0.6,0,1.1-0.1,1.7c-0.7,9.5-7.9,15.6-17.2,14.3C433.5,257.6,426.5,248.7,419.8,236.7z M343.9,234.3c0.6-0.2,1.1-0.3,1.5-0.5 c1.5-0.9,3.1-1.7,4.4-2.8c2-1.7,3.1-4,4.4-6.3c16.3-28.5,32.6-57,48.9-85.6c0.3-0.5,0.5-1.2,0.5-1.8c0-0.3-0.6-0.8-1-0.8 c-0.8-0.1-1.4,0.3-1.8,1c-0.3,0.5-0.6,1-0.9,1.6c-16.8,29.2-33.5,58.4-50.2,87.6C348.4,229.6,346.8,232.4,343.9,234.3z" style="fill:#C69C6D;"/>
  <path d="M587.1,236.7c-17.6-30.1-34.8-59.5-52.6-90.1c-4.3,2.5-5.8,6.9-7.8,10.6c-14.5,25.3-29.1,50.6-43.6,75.9 c-3.2,5.6-6.3,11.3-9.9,16.7c-3.2,4.6-7.7,7.3-13.6,7.1c-5.6-0.2-10-2.9-12.7-7.8c-0.6-1.2-0.9-2.7-1.1-4.1 c-0.2-18.5-0.1-36.9-0.1-55.4c0-13.9-0.2-27.9,0.1-41.8c0.1-4.7,1.8-8.9,6.4-10.8c5.7-2.3,10.4-0.4,14.2,4 c2.4,2.7,3.1,6.1,3.1,9.6c0,15.1,0,30.2,0,45.3c0,2.3,0,4.5,0,7.4c1-1.5,1.7-2.2,2.2-3.1c13.7-24,27.5-48,41.1-72 c4.5-7.8,11-11.5,19.8-11.1c8.6,0.3,14.6,4.3,18.8,11.8c13.2,23.3,26.5,46.6,39.7,69.9c2,3.5,4,6.9,6.3,11c0.6-3.7,0.3-6.9,0.3-10 c0-14.7,0-29.4,0-44.1c0.1-8.4,5.7-13.9,13.3-13.9c7.7,0,13.2,5.1,13.3,13.5c0.2,21.5,0.1,43,0.1,64.5c0,11,0,22,0,33 c0,0.6,0,1.1-0.1,1.7c-0.7,9.5-7.9,15.6-17.2,14.3C600.8,257.6,593.7,248.7,587.1,236.7z M511.2,234.3c0.6-0.2,1.1-0.3,1.5-0.5 c1.5-0.9,3.1-1.7,4.4-2.8c2-1.7,3.1-4,4.4-6.3c16.3-28.5,32.6-57,48.9-85.6c0.3-0.5,0.5-1.2,0.5-1.8c0-0.3-0.6-0.8-1-0.8 c-0.8-0.1-1.4,0.3-1.8,1c-0.3,0.5-0.6,1-0.9,1.6c-16.8,29.2-33.5,58.4-50.2,87.6C515.7,229.6,514.1,232.4,511.2,234.3z" style="fill:#C69C6D;"/>
  <path d="M228.1,194.8c0,8.3,0,16.7,0,25c0,8.7-4.3,13.8-12.1,14.6c-7.5,0.7-13.6-4.1-14.8-11.7c-0.3-2-0.3-4.1-0.3-6.1 c0-28.8,0-57.5,0-86.3c0-10.2,6.6-15.8,16.3-13.9c5.6,1.1,10.3,6.4,10.5,12.7c0.5,14.5,0.2,29,0.2,43.5 C228.1,180.1,228.1,187.5,228.1,194.8z M214.3,228.7c6.6,0,11.8-4.9,11.8-11.2c0-17.2,0-34.4,0-51.6c0-16.8,0-33.7,0-50.5 c0-6.5-5.3-11.6-11.7-11.6c-6.5,0-11.7,5.1-11.7,11.7c0,33.9,0,67.8,0,101.7C202.6,223.8,207.8,228.7,214.3,228.7z" style="fill:#C69C6D;"/>
  <path d="M668.8,195.7c0,7.8,0.1,15.7,0,23.5c-0.2,8.7-6.6,15.3-14.6,15.1c-7.9-0.2-13.9-7-13.9-15.7c0-28.5,0-57.1,0-85.6 c0-6.7,3.1-11.5,8.5-14.2c8.4-4.2,17.5,1.4,19.2,12c0.2,1.6,0.2,3.2,0.2,4.8c0,15.5,0,31,0,46.5 C668.1,186.1,668.1,190.9,668.8,195.7z M655,228.7c6.6,0,11.8-4.9,11.8-11.2c0-17.2,0-34.4,0-51.6c0-16.8,0-33.7,0-50.5 c0-6.5-5.3-11.6-11.7-11.6c-6.5,0-11.7,5.1-11.7,11.7c0,33.9,0,67.8,0,101.7C643.3,223.8,648.5,228.7,655,228.7z" style="fill:#C69C6D;"/>
</svg> 